<svg xmlns="http://www.w3.org/2000/svg" xmlns:xlink="http://www.w3.org/1999/xlink" width="840" height="602.75"><rect width="840" height="602.75" rx="5" ry="5" class="a"/><svg y="0%" x="0%"><circle cx="20" cy="20" r="6" fill="#ff5f58"/><circle cx="40" cy="20" r="6" fill="#ffbd2e"/><circle cx="60" cy="20" r="6" fill="#18c132"/></svg><svg height="542.75" viewBox="0 0 80 54.275" width="800" x="15" xmlns="http://www.w3.org/2000/svg" xmlns:xlink="http://www.w3.org/1999/xlink" y="50"><style>@keyframes u{0%{transform:translateX(0)}1.63%{transform:translateX(-80px)}1.64%{transform:translateX(-160px)}2.05%{transform:translateX(-240px)}2.07%{transform:translateX(-320px)}2.11%{transform:translateX(-400px)}2.12%{transform:translateX(-480px)}10.73%{transform:translateX(-560px)}11.2%{transform:translateX(-640px)}11.6%{transform:translateX(-720px)}12.62%{transform:translateX(-800px)}13.54%{transform:translateX(-880px)}17.63%{transform:translateX(-960px)}19.41%{transform:translateX(-1040px)}19.46%{transform:translateX(-1200px)}20.33%{transform:translateX(-1520px)}20.34%{transform:translateX(-1680px)}27%{transform:translateX(-1760px)}27.01%{transform:translateX(-1920px)}30.89%{transform:translateX(-2000px)}30.9%{transform:translateX(-2080px)}30.91%{transform:translateX(-2480px)}31.58%{transform:translateX(-2640px)}31.59%{transform:translateX(-2720px)}34.34%{transform:translateX(-2800px)}34.35%{transform:translateX(-2960px)}38.08%{transform:translateX(-3040px)}38.09%{transform:translateX(-3440px)}38.1%{transform:translateX(-3520px)}49.09%{transform:translateX(-4320px)}49.1%{transform:translateX(-4960px)}49.11%{transform:translateX(-5680px)}49.12%{transform:translateX(-5760px)}49.36%{transform:translateX(-5920px)}58.1%{transform:translateX(-6000px)}58.11%{transform:translateX(-6240px)}58.12%{transform:translateX(-6320px)}61.73%{transform:translateX(-6480px)}61.74%{transform:translateX(-6560px)}61.89%{transform:translateX(-6640px)}61.9%{transform:translateX(-6720px)}62.53%{transform:translateX(-6800px)}62.64%{transform:translateX(-6880px)}62.65%{transform:translateX(-6960px)}63.51%{transform:translateX(-7040px)}63.62%{transform:translateX(-7200px)}63.9%{transform:translateX(-7280px)}64%{transform:translateX(-7440px)}64.54%{transform:translateX(-7520px)}64.66%{transform:translateX(-7600px)}64.67%{transform:translateX(-7680px)}67.13%{transform:translateX(-7760px)}67.22%{transform:translateX(-7840px)}68.97%{transform:translateX(-7920px)}69.07%{transform:translateX(-8000px)}69.08%{transform:translateX(-8080px)}73.46%{transform:translateX(-8160px)}73.56%{transform:translateX(-8320px)}75.18%{transform:translateX(-8400px)}75.29%{transform:translateX(-8560px)}78.07%{transform:translateX(-8640px)}86.72%{transform:translateX(-8720px)}86.73%{transform:translateX(-8880px)}93.48%{transform:translateX(-9040px)}93.49%{transform:translateX(-9200px)}99.99%{transform:translateX(-9440px)}to{transform:translateX(-9600px)}}.a{fill:#282d35}.f,.g,.h,.j{fill:#d290e4;white-space:pre}.g,.h,.j{fill:#71bef2}.h,.j{fill:#6c6c6c}.j{fill:#66c2cd}.k{fill:#a8cc8c}.k,.l,.m{white-space:pre}.l{fill:#6f7783}.m{text-decoration:underline}.m,.n{fill:#b9c0cb}.n,.o,.q,.r{white-space:pre}.o{fill:#b9c0cb;font-weight:700}.q,.r{fill:#dbab79}.r{fill:#e88388}</style><g font-family="Monaco,Consolas,Menlo,'Bitstream Vera Sans Mono','Powerline Symbols',monospace" font-size="1.67"><defs><symbol id="1"><text y="1.67" class="f">△</text></symbol><symbol id="2"><text y="1.67" class="g">~/repo/commitlive</text><text x="18.036" y="1.67" class="h">master</text><text x="24.048" y="1.67" style="white-space:pre" fill="#ffafd7">*</text><text x="26.052" y="1.67" class="j">⇣</text></symbol><symbol id="3"><text y="1.67" class="f">△</text><text x="2.004" y="1.67" class="k">node</text><text x="7.014" y="1.67" class="l">index.js</text><text x="16.032" y="1.67" class="l">-am</text></symbol><symbol id="4"><text y="1.67" class="f">△</text><text x="2.004" y="1.67" class="k">node</text><text x="7.014" y="1.67" class="m">index.js</text><text x="16.032" y="1.67" class="n">-am</text></symbol><symbol id="5"><text y="1.67" class="g">description›</text><text x="13.026" y="1.67" class="l">&lt;type&gt;[optional</text><text x="29.058" y="1.67" class="l">scope]:</text><text x="37.074" y="1.67" class="l">&lt;description&gt;</text></symbol><symbol id="6"><text y="1.67" class="n">refactor</text><text x="10.02" y="1.67" class="n">--</text><text x="13.026" y="1.67" class="n">A</text><text x="15.03" y="1.67" class="n">code</text><text x="20.04" y="1.67" class="n">change</text><text x="27.054" y="1.67" class="n">that</text><text x="32.064" y="1.67" class="n">neither</text><text x="40.08" y="1.67" class="n">fixes</text><text x="46.092" y="1.67" class="n">a</text><text x="48.096" y="1.67" class="n">bug</text><text x="52.104" y="1.67" class="n">nor</text><text x="56.112" y="1.67" class="n">adds</text><text x="61.122" y="1.67" class="n">a</text><text x="63.126" y="1.67" class="n">feature</text></symbol><symbol id="7"><text y="1.67" class="n">revert</text><text x="10.02" y="1.67" class="n">--</text><text x="13.026" y="1.67" class="n">Reverts</text><text x="21.042" y="1.67" class="n">a</text><text x="23.046" y="1.67" class="n">previous</text><text x="32.064" y="1.67" class="n">commit</text></symbol><symbol id="8"><text y="1.67" class="n">build</text><text x="10.02" y="1.67" class="n">--</text><text x="13.026" y="1.67" class="n">Changes</text><text x="21.042" y="1.67" class="n">that</text><text x="26.052" y="1.67" class="n">affect</text><text x="33.066" y="1.67" class="n">the</text><text x="37.074" y="1.67" class="n">build</text><text x="43.086" y="1.67" class="n">system</text><text x="50.1" y="1.67" class="n">or</text><text x="53.106" y="1.67" class="n">external</text><text x="62.124" y="1.67" class="n">dependencies</text></symbol><symbol id="9"><text y="1.67" class="n">chore</text><text x="10.02" y="1.67" class="n">--</text><text x="13.026" y="1.67" class="n">Other</text><text x="19.038" y="1.67" class="n">changes</text><text x="27.054" y="1.67" class="n">that</text><text x="32.064" y="1.67" class="n">dont</text><text x="37.074" y="1.67" class="n">modify</text><text x="44.088" y="1.67" class="n">src</text><text x="48.096" y="1.67" class="n">or</text><text x="51.102" y="1.67" class="n">test</text><text x="56.112" y="1.67" class="n">files</text></symbol><symbol id="10"><text y="1.67" class="n">style</text><text x="10.02" y="1.67" class="n">--</text><text x="13.026" y="1.67" class="n">Changes</text><text x="21.042" y="1.67" class="n">that</text><text x="26.052" y="1.67" class="n">do</text><text x="29.058" y="1.67" class="n">not</text><text x="33.066" y="1.67" class="n">affect</text><text x="40.08" y="1.67" class="n">the</text><text x="44.088" y="1.67" class="n">meaning</text><text x="52.104" y="1.67" class="n">of</text><text x="55.11" y="1.67" class="n">the</text><text x="59.118" y="1.67" class="n">code</text></symbol><symbol id="11"><text y="1.67" class="n">docs</text><text x="10.02" y="1.67" class="n">--</text><text x="13.026" y="1.67" class="n">Documentation</text><text x="27.054" y="1.67" class="n">only</text><text x="32.064" y="1.67" class="n">changes</text></symbol><symbol id="12"><text y="1.67" class="n">feat</text><text x="10.02" y="1.67" class="n">--</text><text x="13.026" y="1.67" class="n">A</text><text x="15.03" y="1.67" class="n">new</text><text x="19.038" y="1.67" class="n">feature</text></symbol><symbol id="13"><text y="1.67" class="n">perf</text><text x="10.02" y="1.67" class="n">--</text><text x="13.026" y="1.67" class="n">A</text><text x="15.03" y="1.67" class="n">code</text><text x="20.04" y="1.67" class="n">change</text><text x="27.054" y="1.67" class="n">that</text><text x="32.064" y="1.67" class="n">improves</text><text x="41.082" y="1.67" class="n">performance</text></symbol><symbol id="14"><text y="1.67" class="n">test</text><text x="10.02" y="1.67" class="n">--</text><text x="13.026" y="1.67" class="n">Adding</text><text x="20.04" y="1.67" class="n">missing</text><text x="28.056" y="1.67" class="n">tests</text><text x="34.068" y="1.67" class="n">or</text><text x="37.074" y="1.67" class="n">correcting</text><text x="48.096" y="1.67" class="n">existing</text><text x="57.114" y="1.67" class="n">tests</text></symbol><symbol id="15"><text y="1.67" class="n">fix</text><text x="10.02" y="1.67" class="n">--</text><text x="13.026" y="1.67" class="n">A</text><text x="15.03" y="1.67" class="n">bug</text><text x="19.038" y="1.67" class="n">fix</text></symbol><symbol id="16"><text y="1.67" class="n">ci</text><text x="10.02" y="1.67" class="n">--</text><text x="13.026" y="1.67" class="n">Changes</text><text x="21.042" y="1.67" class="n">to</text><text x="24.048" y="1.67" class="n">CI</text><text x="27.054" y="1.67" class="n">configuration</text><text x="41.082" y="1.67" class="n">files</text><text x="47.094" y="1.67" class="n">and</text><text x="51.102" y="1.67" class="n">scripts</text></symbol><symbol id="17"><text y="1.67" class="g">description›</text><text x="13.026" y="1.67" class="n">f</text></symbol><symbol id="18"><text y="1.67" class="j">Add</text><text x="4.008" y="1.67" class="j">&lt;type&gt;:</text><text x="12.024" y="1.67" class="j">a</text><text x="14.028" y="1.67" class="j">noun,</text><text x="20.04" y="1.67" class="j">feat,</text><text x="26.052" y="1.67" class="j">fix,</text><text x="31.062" y="1.67" class="j">etc.</text></symbol><symbol id="19"><text y="1.67" class="g">description›</text><text x="13.026" y="1.67" class="n">fi</text></symbol><symbol id="20"><text y="1.67" class="g">description›</text><text x="13.026" y="1.67" class="n">fix</text></symbol><symbol id="21"><text y="1.67" class="g">description›</text><text x="13.026" y="1.67" class="n">fix:</text></symbol><symbol id="22"><text y="1.67" class="j">Add</text><text x="4.008" y="1.67" class="j">&lt;description&gt;:</text><text x="19.038" y="1.67" class="j">a</text><text x="21.042" y="1.67" class="j">short</text><text x="27.054" y="1.67" class="j">summary</text><text x="35.07" y="1.67" class="j">of</text><text x="38.076" y="1.67" class="j">the</text><text x="42.084" y="1.67" class="j">code</text><text x="47.094" y="1.67" class="j">changes</text></symbol><symbol id="23"><text y="1.67" class="g">description›</text><text x="13.026" y="1.67" class="n">fix:</text><text x="18.036" y="1.67" class="n">ready</text><text x="24.048" y="1.67" class="n">to</text></symbol><symbol id="24"><text y="1.67" class="g">description›</text><text x="13.026" y="1.67" class="n">fix:</text><text x="18.036" y="1.67" class="n">ready</text><text x="24.048" y="1.67" class="n">to</text><text x="27.054" y="1.67" class="n">close</text></symbol><symbol id="25"><text y="1.67" class="g">description›</text><text x="13.026" y="1.67" class="n">fix:</text><text x="18.036" y="1.67" class="n">ready</text><text x="24.048" y="1.67" class="n">to</text><text x="27.054" y="1.67" class="n">close</text><text x="33.066" y="1.67" class="n">good</text><text x="38.076" y="1.67" class="n">first</text><text x="44.088" y="1.67" class="n">issue</text></symbol><symbol id="26"><text y="1.67" class="l">⧗</text><text x="4.008" y="1.67" class="n">input:</text><text x="11.022" y="1.67" class="o">fix:</text><text x="16.032" y="1.67" class="o">ready</text><text x="22.044" y="1.67" class="o">to</text><text x="25.05" y="1.67" class="o">close</text><text x="31.062" y="1.67" class="o">good</text><text x="36.072" y="1.67" class="o">first</text><text x="42.084" y="1.67" class="o">issue</text></symbol><symbol id="27"><text y="1.67" style="white-space:pre" fill="#a8cc8c" font-weight="700">✔</text><text x="4.008" y="1.67" class="o">found</text><text x="10.02" y="1.67" class="o">0</text><text x="12.024" y="1.67" class="o">problems,</text><text x="22.044" y="1.67" class="o">0</text><text x="24.048" y="1.67" class="o">warnings</text></symbol><symbol id="28"><text y="1.67" class="g">body›</text></symbol><symbol id="29"><text y="1.67" class="j">Optionally</text><text x="11.022" y="1.67" class="j">Add</text><text x="15.03" y="1.67" class="j">[body]:</text><text x="23.046" y="1.67" class="j">providing</text><text x="33.066" y="1.67" class="j">additional</text><text x="44.088" y="1.67" class="j">contextual</text><text x="55.11" y="1.67" class="j">information</text></symbol><symbol id="30"><text y="1.67" class="g">body›</text><text x="6.012" y="1.67" class="n">c</text></symbol><symbol id="31"><text y="1.67" class="g">body›</text><text x="6.012" y="1.67" class="n">cl</text></symbol><symbol id="32"><text y="1.67" class="g">body›</text><text x="6.012" y="1.67" class="n">clo</text></symbol><symbol id="33"><text y="1.67" class="g">body›</text><text x="6.012" y="1.67" class="n">clos</text></symbol><symbol id="34"><text y="1.67" class="g">body›</text><text x="6.012" y="1.67" class="n">close</text></symbol><symbol id="35"><text y="1.67" class="g">body›</text><text x="6.012" y="1.67" class="n">closes</text></symbol><symbol id="36"><text y="1.67" class="g">body›</text><text x="6.012" y="1.67" class="n">closes</text><text x="13.026" y="1.67" class="n">#</text></symbol><symbol id="37"><text y="1.67" class="g">body›</text><text x="6.012" y="1.67" class="n">closes</text><text x="13.026" y="1.67" class="n">#1</text></symbol><symbol id="38"><text y="1.67" class="k">title:</text><text x="7.014" y="1.67" class="n">will</text><text x="12.024" y="1.67" class="n">be</text><text x="15.03" y="1.67" class="n">closed</text><text x="22.044" y="1.67" class="n">by</text><text x="25.05" y="1.67" class="n">commitlive</text></symbol><symbol id="39"><text y="1.67" class="k">state:</text><text x="7.014" y="1.67" class="n">OPEN</text></symbol><symbol id="40"><text y="1.67" class="k">author:</text><text x="8.016" y="1.67" class="n">beetcb</text></symbol><symbol id="41"><text y="1.67" class="k">labels:</text><text x="8.016" y="1.67" class="n">good</text><text x="13.026" y="1.67" class="n">first</text><text x="19.038" y="1.67" class="n">issue</text></symbol><symbol id="42"><text y="1.67" class="k">comments:</text><text x="10.02" y="1.67" class="n">0</text></symbol><symbol id="43"><text y="1.67" class="k">assignees:</text></symbol><symbol id="44"><text y="1.67" class="k">projects:</text></symbol><symbol id="45"><text y="1.67" class="k">milestone:</text></symbol><symbol id="46"><text y="1.67" class="k">--</text></symbol><symbol id="47"><text y="1.67" class="g">footer›</text><text x="8.016" y="1.67" class="l">[optional</text><text x="18.036" y="1.67" class="l">footer(s)]</text></symbol><symbol id="48"><text y="1.67" class="j">Optionally</text><text x="11.022" y="1.67" class="j">add</text><text x="15.03" y="1.67" class="j">[footers]</text></symbol><symbol id="49"><text y="1.67" class="g">Your</text><text x="5.01" y="1.67" class="g">commit</text><text x="12.024" y="1.67" class="g">message</text><text x="20.04" y="1.67" class="g">is:</text></symbol><symbol id="50"><text y="1.67" class="q">fix:</text></symbol><symbol id="51"><text y="1.67" class="q">closes</text><text x="7.014" y="1.67" class="q">#1</text></symbol><symbol id="52"><text y="1.67" class="r">Press</text><text x="6.012" y="1.67" class="r">ctrl+s</text><text x="13.026" y="1.67" class="r">to</text><text x="16.032" y="1.67" class="r">commit</text><text x="23.046" y="1.67" class="r">it,</text><text x="27.054" y="1.67" class="r">ctrl+c</text><text x="34.068" y="1.67" class="r">to</text><text x="37.074" y="1.67" class="r">quit</text></symbol><symbol id="a"><path fill="transparent" d="M0 0h80v25H0z"/></symbol><symbol id="b"><path fill="#6f7683" d="M0 0h1.102v2.171H0z"/></symbol></defs><path class="a" d="M0 0h80v54.275H0z"/><g style="animation-duration:17.381909s;animation-iteration-count:infinite;animation-name:u;animation-timing-function:steps(1,end)"><svg width="9680"><svg><use xlink:href="#a"/><use xlink:href="#b" x="-.004"/></svg><svg x="80"><use xlink:href="#a"/><use xlink:href="#b" x="-.004"/></svg><svg x="160"><use xlink:href="#a"/><use xlink:href="#b" x="-.004" y="2.146"/></svg><svg x="240"><use xlink:href="#a"/><use xlink:href="#b" x="1.996" y="4.317"/><text y="3.841" class="g">~/repo/commitlive</text><use xlink:href="#1" y="4.342"/></svg><svg x="320"><use xlink:href="#a"/><use xlink:href="#b" x="1.996" y="4.317"/><text y="3.841" class="g">~/repo/commitlive</text><text x="18.036" y="3.841" class="h">master</text><use xlink:href="#1" y="4.342"/></svg><svg x="400"><use xlink:href="#a"/><use xlink:href="#b" x="1.996" y="4.317"/><text y="3.841" class="g">~/repo/commitlive</text><text x="18.036" y="3.841" class="h">master</text><text x="25.05" y="3.841" class="j">⇣</text><use xlink:href="#1" y="4.342"/></svg><svg x="480"><use xlink:href="#a"/><use xlink:href="#b" x="1.996" y="4.317"/><use xlink:href="#2" y="2.171"/><use xlink:href="#1" y="4.342"/></svg><svg x="560"><use xlink:href="#a"/><use xlink:href="#b" x="2.996" y="4.317"/><use xlink:href="#2" y="2.171"/><text y="6.012" class="f">△</text><text x="2.004" y="6.012" class="k">n</text><text x="3.006" y="6.012" class="l">ode</text><text x="7.014" y="6.012" class="l">index.js</text><text x="16.032" y="6.012" class="l">-am</text></svg><svg x="640"><use xlink:href="#a"/><use xlink:href="#b" x="3.996" y="4.317"/><use xlink:href="#2" y="2.171"/><text y="6.012" class="f">△</text><text x="2.004" y="6.012" class="m">no</text><text x="4.008" y="6.012" class="l">de</text><text x="7.014" y="6.012" class="l">index.js</text><text x="16.032" y="6.012" class="l">-am</text></svg><svg x="720"><use xlink:href="#a"/><use xlink:href="#b" x="4.996" y="4.317"/><use xlink:href="#2" y="2.171"/><text y="6.012" class="f">△</text><text x="2.004" y="6.012" class="m">nod</text><text x="5.01" y="6.012" class="l">e</text><text x="7.014" y="6.012" class="l">index.js</text><text x="16.032" y="6.012" class="l">-am</text></svg><svg x="800"><use xlink:href="#a"/><use xlink:href="#b" x="5.996" y="4.317"/><use xlink:href="#2" y="2.171"/><use xlink:href="#3" y="4.342"/></svg><svg x="880"><use xlink:href="#a"/><use xlink:href="#b" x="6.996" y="4.317"/><use xlink:href="#2" y="2.171"/><use xlink:href="#3" y="4.342"/></svg><svg x="960"><use xlink:href="#a"/><use xlink:href="#b" x="18.996" y="4.317"/><use xlink:href="#2" y="2.171"/><use xlink:href="#4" y="4.342"/></svg><svg x="1040"><use xlink:href="#a"/><use xlink:href="#b" x="18.996" y="4.317"/><use xlink:href="#2" y="2.171"/><use xlink:href="#4" y="4.342"/></svg><svg x="1120"><use xlink:href="#a"/><use xlink:href="#b" x="-.004" y="6.488"/><use xlink:href="#2" y="2.171"/><use xlink:href="#4" y="4.342"/></svg><svg x="1200"><use xlink:href="#a"/><use xlink:href="#b" x="-.004" y="6.488"/><use xlink:href="#2" y="2.171"/><use xlink:href="#4" y="4.342"/></svg><svg x="1280"><use xlink:href="#a"/><use xlink:href="#b" x="-.004" y="6.488"/></svg><svg x="1360"><use xlink:href="#a"/><use xlink:href="#b" x="-.004"/></svg><svg x="1440"><use xlink:href="#a"/><use xlink:href="#b" x="-.004"/></svg><svg x="1520"><use xlink:href="#a"/><use xlink:href="#b" x="12.996" y="2.146"/><text y="3.841" class="g">description›</text></svg><svg x="1600"><use xlink:href="#a"/><use xlink:href="#b" x="49.996" y="2.146"/><use xlink:href="#5" y="2.171"/></svg><svg x="1680"><use xlink:href="#a"/><use xlink:href="#b" x="12.996" y="2.146"/><use xlink:href="#5" y="2.171"/></svg><svg x="1760"><use xlink:href="#a"/><use xlink:href="#b" x="-.004" y="4.317"/><use xlink:href="#5" y="2.171"/></svg><svg x="1840"><use xlink:href="#a"/><use xlink:href="#b" x="12.996" y="2.146"/><use xlink:href="#5" y="2.171"/><use xlink:href="#6" y="4.342"/><use xlink:href="#7" y="6.513"/><use xlink:href="#8" y="8.684"/><use xlink:href="#9" y="10.855"/><use xlink:href="#10" y="13.026"/><use xlink:href="#11" y="15.197"/><use xlink:href="#12" y="17.368"/><use xlink:href="#13" y="19.539"/><use xlink:href="#14" y="21.71"/><use xlink:href="#15" y="23.881"/><use xlink:href="#16" y="26.052"/></svg><svg x="1920"><use xlink:href="#a"/><use xlink:href="#b" x="12.996" y="2.146"/><use xlink:href="#5" y="2.171"/><use xlink:href="#6" y="4.342"/><use xlink:href="#7" y="6.513"/><use xlink:href="#8" y="8.684"/><use xlink:href="#9" y="10.855"/><use xlink:href="#10" y="13.026"/><use xlink:href="#11" y="15.197"/><use xlink:href="#12" y="17.368"/><use xlink:href="#13" y="19.539"/><use xlink:href="#14" y="21.71"/><use xlink:href="#15" y="23.881"/><use xlink:href="#16" y="26.052"/></svg><svg x="2000"><use xlink:href="#a"/><use xlink:href="#b" x="13.996" y="2.146"/><text y="3.841" class="g">description›</text><text x="13.026" y="3.841" class="n">f</text><text x="14.028" y="3.841" class="l">type&gt;[optional</text><text x="29.058" y="3.841" class="l">scope]:</text><text x="37.074" y="3.841" class="l">&lt;description&gt;</text><use xlink:href="#6" y="4.342"/><use xlink:href="#7" y="6.513"/><use xlink:href="#8" y="8.684"/><use xlink:href="#9" y="10.855"/><use xlink:href="#10" y="13.026"/><use xlink:href="#11" y="15.197"/><use xlink:href="#12" y="17.368"/><use xlink:href="#13" y="19.539"/><use xlink:href="#14" y="21.71"/><use xlink:href="#15" y="23.881"/><use xlink:href="#16" y="26.052"/></svg><svg x="2080"><use xlink:href="#a"/><use xlink:href="#b" x="50.996" y="2.146"/><use xlink:href="#17" y="2.171"/><use xlink:href="#6" y="4.342"/><use xlink:href="#7" y="6.513"/><use xlink:href="#8" y="8.684"/><use xlink:href="#9" y="10.855"/><use xlink:href="#10" y="13.026"/><use xlink:href="#11" y="15.197"/><use xlink:href="#12" y="17.368"/><use xlink:href="#13" y="19.539"/><use xlink:href="#14" y="21.71"/><use xlink:href="#15" y="23.881"/><use xlink:href="#16" y="26.052"/></svg><svg x="2160"><use xlink:href="#a"/><use xlink:href="#b" x="13.996" y="2.146"/><use xlink:href="#17" y="2.171"/><use xlink:href="#6" y="4.342"/><use xlink:href="#7" y="6.513"/><use xlink:href="#8" y="8.684"/><use xlink:href="#9" y="10.855"/><use xlink:href="#10" y="13.026"/><use xlink:href="#11" y="15.197"/><use xlink:href="#12" y="17.368"/><use xlink:href="#13" y="19.539"/><use xlink:href="#14" y="21.71"/><use xlink:href="#15" y="23.881"/><use xlink:href="#16" y="26.052"/></svg><svg x="2240"><use xlink:href="#a"/><use xlink:href="#b" x="34.996" y="6.488"/><use xlink:href="#17" y="2.171"/><use xlink:href="#18" y="6.513"/></svg><svg x="2320"><use xlink:href="#a"/><use xlink:href="#b" x="13.996" y="2.146"/><use xlink:href="#17" y="2.171"/><use xlink:href="#18" y="6.513"/></svg><svg x="2400"><use xlink:href="#a"/><use xlink:href="#b" x="13.996" y="2.146"/><use xlink:href="#17" y="2.171"/><use xlink:href="#18" y="6.513"/></svg><svg x="2480"><use xlink:href="#a"/><use xlink:href="#b" x="13.996" y="2.146"/><use xlink:href="#17" y="2.171"/><use xlink:href="#18" y="6.513"/></svg><svg x="2560"><use xlink:href="#a"/><use xlink:href="#b" x="14.996" y="2.146"/><use xlink:href="#19" y="2.171"/><use xlink:href="#18" y="6.513"/></svg><svg x="2640"><use xlink:href="#a"/><use xlink:href="#b" x="34.996" y="6.488"/><use xlink:href="#19" y="2.171"/><use xlink:href="#18" y="6.513"/></svg><svg x="2720"><use xlink:href="#a"/><use xlink:href="#b" x="14.996" y="2.146"/><use xlink:href="#19" y="2.171"/><use xlink:href="#18" y="6.513"/></svg><svg x="2800"><use xlink:href="#a"/><use xlink:href="#b" x="15.996" y="2.146"/><use xlink:href="#20" y="2.171"/><use xlink:href="#18" y="6.513"/></svg><svg x="2880"><use xlink:href="#a"/><use xlink:href="#b" x="52.996" y="2.146"/><use xlink:href="#20" y="2.171"/><use xlink:href="#18" y="6.513"/></svg><svg x="2960"><use xlink:href="#a"/><use xlink:href="#b" x="15.996" y="2.146"/><use xlink:href="#20" y="2.171"/><use xlink:href="#18" y="6.513"/></svg><svg x="3040"><use xlink:href="#a"/><use xlink:href="#b" x="16.996" y="2.146"/><use xlink:href="#21" y="2.171"/><use xlink:href="#18" y="6.513"/></svg><svg x="3120"><use xlink:href="#a"/><use xlink:href="#b" x="17.996" y="2.146"/><use xlink:href="#21" y="2.171"/><use xlink:href="#18" y="6.513"/></svg><svg x="3200"><use xlink:href="#a"/><use xlink:href="#b" x="17.996" y="2.146"/><use xlink:href="#21" y="2.171"/><use xlink:href="#18" y="6.513"/></svg><svg x="3280"><use xlink:href="#a"/><use xlink:href="#b" x="53.996" y="6.488"/><use xlink:href="#21" y="2.171"/><use xlink:href="#22" y="6.513"/></svg><svg x="3360"><use xlink:href="#a"/><use xlink:href="#b" x="17.996" y="2.146"/><use xlink:href="#21" y="2.171"/><use xlink:href="#22" y="6.513"/></svg><svg x="3440"><use xlink:href="#a"/><use xlink:href="#b" x="17.996" y="2.146"/><use xlink:href="#21" y="2.171"/><use xlink:href="#22" y="6.513"/></svg><svg x="3520"><use xlink:href="#a"/><use xlink:href="#b" x="17.996" y="2.146"/><use xlink:href="#21" y="2.171"/><use xlink:href="#22" y="6.513"/></svg><svg x="3600"><use xlink:href="#a"/><use xlink:href="#b" x="18.996" y="2.146"/><text y="3.841" class="g">description›</text><text x="13.026" y="3.841" class="n">fix:</text><text x="18.036" y="3.841" class="n">r</text><use xlink:href="#22" y="6.513"/></svg><svg x="3680"><use xlink:href="#a"/><use xlink:href="#b" x="19.996" y="2.146"/><text y="3.841" class="g">description›</text><text x="13.026" y="3.841" class="n">fix:</text><text x="18.036" y="3.841" class="n">re</text><use xlink:href="#22" y="6.513"/></svg><svg x="3760"><use xlink:href="#a"/><use xlink:href="#b" x="21.996" y="2.146"/><text y="3.841" class="g">description›</text><text x="13.026" y="3.841" class="n">fix:</text><text x="18.036" y="3.841" class="n">read</text><use xlink:href="#22" y="6.513"/></svg><svg x="3840"><use xlink:href="#a"/><use xlink:href="#b" x="22.996" y="2.146"/><text y="3.841" class="g">description›</text><text x="13.026" y="3.841" class="n">fix:</text><text x="18.036" y="3.841" class="n">ready</text><use xlink:href="#22" y="6.513"/></svg><svg x="3920"><use xlink:href="#a"/><use xlink:href="#b" x="24.996" y="2.146"/><text y="3.841" class="g">description›</text><text x="13.026" y="3.841" class="n">fix:</text><text x="18.036" y="3.841" class="n">ready</text><text x="24.048" y="3.841" class="n">t</text><use xlink:href="#22" y="6.513"/></svg><svg x="4000"><use xlink:href="#a"/><use xlink:href="#b" x="25.996" y="2.146"/><use xlink:href="#23" y="2.171"/><use xlink:href="#22" y="6.513"/></svg><svg x="4080"><use xlink:href="#a"/><use xlink:href="#b" x="26.996" y="2.146"/><use xlink:href="#23" y="2.171"/><use xlink:href="#22" y="6.513"/></svg><svg x="4160"><use xlink:href="#a"/><use xlink:href="#b" x="27.996" y="2.146"/><text y="3.841" class="g">description›</text><text x="13.026" y="3.841" class="n">fix:</text><text x="18.036" y="3.841" class="n">ready</text><text x="24.048" y="3.841" class="n">to</text><text x="27.054" y="3.841" class="n">c</text><use xlink:href="#22" y="6.513"/></svg><svg x="4240"><use xlink:href="#a"/><use xlink:href="#b" x="29.996" y="2.146"/><text y="3.841" class="g">description›</text><text x="13.026" y="3.841" class="n">fix:</text><text x="18.036" y="3.841" class="n">ready</text><text x="24.048" y="3.841" class="n">to</text><text x="27.054" y="3.841" class="n">clo</text><use xlink:href="#22" y="6.513"/></svg><svg x="4320"><use xlink:href="#a"/><use xlink:href="#b" x="31.996" y="2.146"/><use xlink:href="#24" y="2.171"/><use xlink:href="#22" y="6.513"/></svg><svg x="4400"><use xlink:href="#a"/><use xlink:href="#b" x="32.996" y="2.146"/><use xlink:href="#24" y="2.171"/><use xlink:href="#22" y="6.513"/></svg><svg x="4480"><use xlink:href="#a"/><use xlink:href="#b" x="33.996" y="2.146"/><text y="3.841" class="g">description›</text><text x="13.026" y="3.841" class="n">fix:</text><text x="18.036" y="3.841" class="n">ready</text><text x="24.048" y="3.841" class="n">to</text><text x="27.054" y="3.841" class="n">close</text><text x="33.066" y="3.841" class="n">g</text><use xlink:href="#22" y="6.513"/></svg><svg x="4560"><use xlink:href="#a"/><use xlink:href="#b" x="34.996" y="2.146"/><text y="3.841" class="g">description›</text><text x="13.026" y="3.841" class="n">fix:</text><text x="18.036" y="3.841" class="n">ready</text><text x="24.048" y="3.841" class="n">to</text><text x="27.054" y="3.841" class="n">close</text><text x="33.066" y="3.841" class="n">go</text><use xlink:href="#22" y="6.513"/></svg><svg x="4640"><use xlink:href="#a"/><use xlink:href="#b" x="35.996" y="2.146"/><text y="3.841" class="g">description›</text><text x="13.026" y="3.841" class="n">fix:</text><text x="18.036" y="3.841" class="n">ready</text><text x="24.048" y="3.841" class="n">to</text><text x="27.054" y="3.841" class="n">close</text><text x="33.066" y="3.841" class="n">goo</text><use xlink:href="#22" y="6.513"/></svg><svg x="4720"><use xlink:href="#a"/><use xlink:href="#b" x="37.996" y="2.146"/><text y="3.841" class="g">description›</text><text x="13.026" y="3.841" class="n">fix:</text><text x="18.036" y="3.841" class="n">ready</text><text x="24.048" y="3.841" class="n">to</text><text x="27.054" y="3.841" class="n">close</text><text x="33.066" y="3.841" class="n">good</text><use xlink:href="#22" y="6.513"/></svg><svg x="4800"><use xlink:href="#a"/><use xlink:href="#b" x="38.996" y="2.146"/><text y="3.841" class="g">description›</text><text x="13.026" y="3.841" class="n">fix:</text><text x="18.036" y="3.841" class="n">ready</text><text x="24.048" y="3.841" class="n">to</text><text x="27.054" y="3.841" class="n">close</text><text x="33.066" y="3.841" class="n">good</text><text x="38.076" y="3.841" class="n">f</text><use xlink:href="#22" y="6.513"/></svg><svg x="4880"><use xlink:href="#a"/><use xlink:href="#b" x="40.996" y="2.146"/><text y="3.841" class="g">description›</text><text x="13.026" y="3.841" class="n">fix:</text><text x="18.036" y="3.841" class="n">ready</text><text x="24.048" y="3.841" class="n">to</text><text x="27.054" y="3.841" class="n">close</text><text x="33.066" y="3.841" class="n">good</text><text x="38.076" y="3.841" class="n">fir</text><use xlink:href="#22" y="6.513"/></svg><svg x="4960"><use xlink:href="#a"/><use xlink:href="#b" x="41.996" y="2.146"/><text y="3.841" class="g">description›</text><text x="13.026" y="3.841" class="n">fix:</text><text x="18.036" y="3.841" class="n">ready</text><text x="24.048" y="3.841" class="n">to</text><text x="27.054" y="3.841" class="n">close</text><text x="33.066" y="3.841" class="n">good</text><text x="38.076" y="3.841" class="n">firs</text><use xlink:href="#22" y="6.513"/></svg><svg x="5040"><use xlink:href="#a"/><use xlink:href="#b" x="43.996" y="2.146"/><text y="3.841" class="g">description›</text><text x="13.026" y="3.841" class="n">fix:</text><text x="18.036" y="3.841" class="n">ready</text><text x="24.048" y="3.841" class="n">to</text><text x="27.054" y="3.841" class="n">close</text><text x="33.066" y="3.841" class="n">good</text><text x="38.076" y="3.841" class="n">first</text><use xlink:href="#22" y="6.513"/></svg><svg x="5120"><use xlink:href="#a"/><use xlink:href="#b" x="44.996" y="2.146"/><text y="3.841" class="g">description›</text><text x="13.026" y="3.841" class="n">fix:</text><text x="18.036" y="3.841" class="n">ready</text><text x="24.048" y="3.841" class="n">to</text><text x="27.054" y="3.841" class="n">close</text><text x="33.066" y="3.841" class="n">good</text><text x="38.076" y="3.841" class="n">first</text><text x="44.088" y="3.841" class="n">i</text><use xlink:href="#22" y="6.513"/></svg><svg x="5200"><use xlink:href="#a"/><use xlink:href="#b" x="46.996" y="2.146"/><text y="3.841" class="g">description›</text><text x="13.026" y="3.841" class="n">fix:</text><text x="18.036" y="3.841" class="n">ready</text><text x="24.048" y="3.841" class="n">to</text><text x="27.054" y="3.841" class="n">close</text><text x="33.066" y="3.841" class="n">good</text><text x="38.076" y="3.841" class="n">first</text><text x="44.088" y="3.841" class="n">iss</text><use xlink:href="#22" y="6.513"/></svg><svg x="5280"><use xlink:href="#a"/><use xlink:href="#b" x="47.996" y="2.146"/><text y="3.841" class="g">description›</text><text x="13.026" y="3.841" class="n">fix:</text><text x="18.036" y="3.841" class="n">ready</text><text x="24.048" y="3.841" class="n">to</text><text x="27.054" y="3.841" class="n">close</text><text x="33.066" y="3.841" class="n">good</text><text x="38.076" y="3.841" class="n">first</text><text x="44.088" y="3.841" class="n">issu</text><use xlink:href="#22" y="6.513"/></svg><svg x="5360"><use xlink:href="#a"/><use xlink:href="#b" x="48.996" y="2.146"/><use xlink:href="#25" y="2.171"/><use xlink:href="#22" y="6.513"/></svg><svg x="5440"><use xlink:href="#a"/><use xlink:href="#b" x="5.996" y="4.317"/><use xlink:href="#25" y="2.171"/><use xlink:href="#22" y="6.513"/></svg><svg x="5520"><use xlink:href="#a"/><use xlink:href="#b" x="48.996" y="2.146"/><use xlink:href="#25" y="2.171"/><use xlink:href="#22" y="6.513"/></svg><svg x="5600"><use xlink:href="#a"/><use xlink:href="#b" x="5.996" y="4.317"/><use xlink:href="#25" y="2.171"/><use xlink:href="#22" y="6.513"/></svg><svg x="5680"><use xlink:href="#a"/><use xlink:href="#b" x="48.996" y="2.146"/><use xlink:href="#25" y="2.171"/><use xlink:href="#22" y="6.513"/></svg><svg x="5760"><use xlink:href="#a"/><use xlink:href="#b" x="48.996" y="2.146"/><use xlink:href="#25" y="2.171"/><use xlink:href="#22" y="6.513"/></svg><svg x="5840"><use xlink:href="#a"/><use xlink:href="#b" x="31.996" y="8.659"/><use xlink:href="#25" y="2.171"/><use xlink:href="#26" y="6.513"/><use xlink:href="#27" y="8.684"/></svg><svg x="5920"><use xlink:href="#a"/><use xlink:href="#b" x="48.996" y="2.146"/><use xlink:href="#25" y="2.171"/><use xlink:href="#26" y="6.513"/><use xlink:href="#27" y="8.684"/></svg><svg x="6000"><use xlink:href="#a"/><use xlink:href="#b" x="-.004" y="4.317"/><use xlink:href="#25" y="2.171"/><use xlink:href="#26" y="6.513"/><use xlink:href="#27" y="8.684"/></svg><svg x="6080"><use xlink:href="#a"/><use xlink:href="#b" x="12.996" y="4.317"/><use xlink:href="#25" y="2.171"/></svg><svg x="6160"><use xlink:href="#a"/><use xlink:href="#b" x="5.996" y="6.488"/><use xlink:href="#25" y="2.171"/><use xlink:href="#28" y="6.513"/></svg><svg x="6240"><use xlink:href="#a"/><use xlink:href="#b" x="65.996" y="10.83"/><use xlink:href="#25" y="2.171"/><use xlink:href="#28" y="6.513"/><use xlink:href="#29" y="10.855"/></svg><svg x="6320"><use xlink:href="#a"/><use xlink:href="#b" x="5.996" y="6.488"/><use xlink:href="#25" y="2.171"/><text y="8.183" class="g">body›</text><text x="6.012" y="8.183" class="l">[optional</text><text x="16.032" y="8.183" class="l">body]</text><use xlink:href="#29" y="10.855"/></svg><svg x="6400"><use xlink:href="#a"/><use xlink:href="#b" x="6.996" y="6.488"/><use xlink:href="#25" y="2.171"/><text y="8.183" class="g">body›</text><text x="6.012" y="8.183" class="n">c</text><text x="7.014" y="8.183" class="l">optional</text><text x="16.032" y="8.183" class="l">body]</text><use xlink:href="#29" y="10.855"/></svg><svg x="6480"><use xlink:href="#a"/><use xlink:href="#b" x="6.996" y="6.488"/><use xlink:href="#25" y="2.171"/><use xlink:href="#30" y="6.513"/><use xlink:href="#29" y="10.855"/></svg><svg x="6560"><use xlink:href="#a"/><use xlink:href="#b" x="6.996" y="6.488"/><use xlink:href="#25" y="2.171"/><use xlink:href="#30" y="6.513"/><use xlink:href="#29" y="10.855"/></svg><svg x="6640"><use xlink:href="#a"/><use xlink:href="#b" x="-.004" y="8.659"/><use xlink:href="#25" y="2.171"/><use xlink:href="#30" y="6.513"/><use xlink:href="#29" y="10.855"/></svg><svg x="6720"><use xlink:href="#a"/><use xlink:href="#b" x="6.996" y="6.488"/><use xlink:href="#25" y="2.171"/><use xlink:href="#30" y="6.513"/><use xlink:href="#26" y="10.855"/><use xlink:href="#27" y="13.026"/></svg><svg x="6800"><use xlink:href="#a"/><use xlink:href="#b" x="7.996" y="6.488"/><use xlink:href="#25" y="2.171"/><use xlink:href="#31" y="6.513"/><use xlink:href="#26" y="10.855"/><use xlink:href="#27" y="13.026"/></svg><svg x="6880"><use xlink:href="#a"/><use xlink:href="#b" x="31.996" y="13.001"/><use xlink:href="#25" y="2.171"/><use xlink:href="#31" y="6.513"/><use xlink:href="#26" y="10.855"/><use xlink:href="#27" y="13.026"/></svg><svg x="6960"><use xlink:href="#a"/><use xlink:href="#b" x="7.996" y="6.488"/><use xlink:href="#25" y="2.171"/><use xlink:href="#31" y="6.513"/><use xlink:href="#26" y="10.855"/><use xlink:href="#27" y="13.026"/></svg><svg x="7040"><use xlink:href="#a"/><use xlink:href="#b" x="8.996" y="6.488"/><use xlink:href="#25" y="2.171"/><use xlink:href="#32" y="6.513"/><use xlink:href="#26" y="10.855"/><use xlink:href="#27" y="13.026"/></svg><svg x="7120"><use xlink:href="#a"/><use xlink:href="#b" x="-.004" y="8.659"/><use xlink:href="#25" y="2.171"/><use xlink:href="#32" y="6.513"/></svg><svg x="7200"><use xlink:href="#a"/><use xlink:href="#b" x="8.996" y="6.488"/><use xlink:href="#25" y="2.171"/><use xlink:href="#32" y="6.513"/><use xlink:href="#26" y="10.855"/><use xlink:href="#27" y="13.026"/></svg><svg x="7280"><use xlink:href="#a"/><use xlink:href="#b" x="9.996" y="6.488"/><use xlink:href="#25" y="2.171"/><use xlink:href="#33" y="6.513"/><use xlink:href="#26" y="10.855"/><use xlink:href="#27" y="13.026"/></svg><svg x="7360"><use xlink:href="#a"/><use xlink:href="#b" x="9.996" y="6.488"/><use xlink:href="#25" y="2.171"/><use xlink:href="#33" y="6.513"/><use xlink:href="#26" y="10.855"/><use xlink:href="#27" y="13.026"/></svg><svg x="7440"><use xlink:href="#a"/><use xlink:href="#b" x="9.996" y="6.488"/><use xlink:href="#25" y="2.171"/><use xlink:href="#33" y="6.513"/><use xlink:href="#26" y="10.855"/><use xlink:href="#27" y="13.026"/></svg><svg x="7520"><use xlink:href="#a"/><use xlink:href="#b" x="10.996" y="6.488"/><use xlink:href="#25" y="2.171"/><use xlink:href="#34" y="6.513"/><use xlink:href="#26" y="10.855"/><use xlink:href="#27" y="13.026"/></svg><svg x="7600"><use xlink:href="#a"/><use xlink:href="#b" x="31.996" y="13.001"/><use xlink:href="#25" y="2.171"/><use xlink:href="#34" y="6.513"/><use xlink:href="#26" y="10.855"/><use xlink:href="#27" y="13.026"/></svg><svg x="7680"><use xlink:href="#a"/><use xlink:href="#b" x="10.996" y="6.488"/><use xlink:href="#25" y="2.171"/><use xlink:href="#34" y="6.513"/><use xlink:href="#26" y="10.855"/><use xlink:href="#27" y="13.026"/></svg><svg x="7760"><use xlink:href="#a"/><use xlink:href="#b" x="11.996" y="6.488"/><use xlink:href="#25" y="2.171"/><use xlink:href="#35" y="6.513"/><use xlink:href="#26" y="10.855"/><use xlink:href="#27" y="13.026"/></svg><svg x="7840"><use xlink:href="#a"/><use xlink:href="#b" x="11.996" y="6.488"/><use xlink:href="#25" y="2.171"/><use xlink:href="#35" y="6.513"/><use xlink:href="#26" y="10.855"/><use xlink:href="#27" y="13.026"/></svg><svg x="7920"><use xlink:href="#a"/><use xlink:href="#b" x="12.996" y="6.488"/><use xlink:href="#25" y="2.171"/><use xlink:href="#35" y="6.513"/><use xlink:href="#26" y="10.855"/><use xlink:href="#27" y="13.026"/></svg><svg x="8000"><use xlink:href="#a"/><use xlink:href="#b" x="31.996" y="13.001"/><use xlink:href="#25" y="2.171"/><use xlink:href="#35" y="6.513"/><use xlink:href="#26" y="10.855"/><use xlink:href="#27" y="13.026"/></svg><svg x="8080"><use xlink:href="#a"/><use xlink:href="#b" x="12.996" y="6.488"/><use xlink:href="#25" y="2.171"/><use xlink:href="#35" y="6.513"/><use xlink:href="#26" y="10.855"/><use xlink:href="#27" y="13.026"/></svg><svg x="8160"><use xlink:href="#a"/><use xlink:href="#b" x="13.996" y="6.488"/><use xlink:href="#25" y="2.171"/><use xlink:href="#36" y="6.513"/><use xlink:href="#26" y="10.855"/><use xlink:href="#27" y="13.026"/></svg><svg x="8240"><use xlink:href="#a"/><use xlink:href="#b" x="31.996" y="13.001"/><use xlink:href="#25" y="2.171"/><use xlink:href="#36" y="6.513"/><use xlink:href="#26" y="10.855"/><use xlink:href="#27" y="13.026"/></svg><svg x="8320"><use xlink:href="#a"/><use xlink:href="#b" x="13.996" y="6.488"/><use xlink:href="#25" y="2.171"/><use xlink:href="#36" y="6.513"/><use xlink:href="#26" y="10.855"/><use xlink:href="#27" y="13.026"/></svg><svg x="8400"><use xlink:href="#a"/><use xlink:href="#b" x="14.996" y="6.488"/><use xlink:href="#25" y="2.171"/><use xlink:href="#37" y="6.513"/><use xlink:href="#26" y="10.855"/><use xlink:href="#27" y="13.026"/></svg><svg x="8480"><use xlink:href="#a"/><use xlink:href="#b" x="31.996" y="13.001"/><use xlink:href="#25" y="2.171"/><use xlink:href="#37" y="6.513"/><use xlink:href="#26" y="10.855"/><use xlink:href="#27" y="13.026"/></svg><svg x="8560"><use xlink:href="#a"/><use xlink:href="#b" x="14.996" y="6.488"/><use xlink:href="#25" y="2.171"/><use xlink:href="#37" y="6.513"/><use xlink:href="#26" y="10.855"/><use xlink:href="#27" y="13.026"/></svg><svg x="8640"><use xlink:href="#a"/><use xlink:href="#b" x="14.996" y="6.488"/><use xlink:href="#25" y="2.171"/><use xlink:href="#37" y="6.513"/><text y="12.525" class="q">Fetching</text><text x="9.018" y="12.525" class="k">#1</text><text x="12.024" y="12.525" class="q">Detailed</text><text x="21.042" y="12.525" class="q">Information</text></svg><svg x="8720"><use xlink:href="#a"/><use xlink:href="#b" x="14.996" y="6.488"/><use xlink:href="#25" y="2.171"/><use xlink:href="#37" y="6.513"/></svg><svg x="8800"><use xlink:href="#a"/><use xlink:href="#b" x="14.996" y="6.488"/><use xlink:href="#25" y="2.171"/><use xlink:href="#37" y="6.513"/><use xlink:href="#38" y="10.855"/><use xlink:href="#39" y="13.026"/><use xlink:href="#40" y="15.197"/><use xlink:href="#41" y="17.368"/><use xlink:href="#42" y="19.539"/><use xlink:href="#43" y="21.71"/><use xlink:href="#44" y="23.881"/><use xlink:href="#45" y="26.052"/><use xlink:href="#46" y="28.223"/></svg><svg x="8880"><use xlink:href="#a"/><use xlink:href="#b" x="14.996" y="6.488"/><use xlink:href="#25" y="2.171"/><use xlink:href="#37" y="6.513"/><use xlink:href="#38" y="10.855"/><use xlink:href="#39" y="13.026"/><use xlink:href="#40" y="15.197"/><use xlink:href="#41" y="17.368"/><use xlink:href="#42" y="19.539"/><use xlink:href="#43" y="21.71"/><use xlink:href="#44" y="23.881"/><use xlink:href="#45" y="26.052"/><use xlink:href="#46" y="28.223"/></svg><svg x="8960"><use xlink:href="#a"/><use xlink:href="#b" x="-.004" y="8.659"/><use xlink:href="#25" y="2.171"/><use xlink:href="#37" y="6.513"/><use xlink:href="#38" y="10.855"/><use xlink:href="#39" y="13.026"/><use xlink:href="#40" y="15.197"/><use xlink:href="#41" y="17.368"/><use xlink:href="#42" y="19.539"/><use xlink:href="#43" y="21.71"/><use xlink:href="#44" y="23.881"/><use xlink:href="#45" y="26.052"/><use xlink:href="#46" y="28.223"/></svg><svg x="9040"><use xlink:href="#a"/><use xlink:href="#b" x="5.996" y="8.659"/><use xlink:href="#25" y="2.171"/><use xlink:href="#37" y="6.513"/></svg><svg x="9120"><use xlink:href="#a"/><use xlink:href="#b" x="27.996" y="10.83"/><use xlink:href="#25" y="2.171"/><use xlink:href="#37" y="6.513"/><use xlink:href="#47" y="10.855"/><use xlink:href="#48" y="15.197"/></svg><svg x="9200"><use xlink:href="#a"/><use xlink:href="#b" x="7.996" y="10.83"/><use xlink:href="#25" y="2.171"/><use xlink:href="#37" y="6.513"/><use xlink:href="#47" y="10.855"/><use xlink:href="#48" y="15.197"/></svg><svg x="9280"><use xlink:href="#a"/><use xlink:href="#b" x="-.004" y="13.001"/><use xlink:href="#25" y="2.171"/><use xlink:href="#37" y="6.513"/><use xlink:href="#47" y="10.855"/><use xlink:href="#48" y="15.197"/></svg><svg x="9360"><use xlink:href="#a"/><use xlink:href="#b" x="7.996" y="13.001"/><use xlink:href="#25" y="2.171"/><use xlink:href="#37" y="6.513"/><use xlink:href="#47" y="10.855"/></svg><svg x="9440"><use xlink:href="#a"/><use xlink:href="#25" y="2.171"/><use xlink:href="#37" y="6.513"/><use xlink:href="#47" y="10.855"/><use xlink:href="#49" y="15.197"/></svg><svg x="9520"><use xlink:href="#a"/><use xlink:href="#25" y="2.171"/><use xlink:href="#37" y="6.513"/><use xlink:href="#47" y="10.855"/><use xlink:href="#49" y="15.197"/><use xlink:href="#50" y="19.539"/><use xlink:href="#51" y="23.881"/><use xlink:href="#52" y="28.223"/></svg><svg x="9600"><use xlink:href="#a"/><use xlink:href="#25" y="2.171"/><use xlink:href="#37" y="6.513"/><use xlink:href="#47" y="10.855"/><use xlink:href="#49" y="15.197"/><use xlink:href="#50" y="19.539"/><use xlink:href="#51" y="23.881"/><use xlink:href="#52" y="28.223"/></svg></svg></g></g></svg></svg>